<svg width="439.7" height="94.6" viewBox="0 0 439.7 94.6" xmlns="http://www.w3.org/2000/svg"><g id="svgGroup" stroke-linecap="round" fill-rule="evenodd" font-size="9pt" stroke="#fff" stroke-width="0.5mm" fill="#bbb" style="stroke:#000;stroke-width:0.25mm;fill:none"><path d="M 232.2 31.7 L 239.1 28.2 Q 246.273 24.661 248.326 22.162 A 5.524 5.524 0 0 0 248.6 21.8 A 6.271 6.271 0 0 0 248.987 21.205 Q 249.35 20.563 249.394 20.041 A 1.684 1.684 0 0 0 249.4 19.9 A 4.338 4.338 0 0 0 249.349 19.216 A 3.145 3.145 0 0 0 249.15 18.5 A 1.905 1.905 0 0 1 249.108 18.39 Q 248.939 17.9 249.3 17.9 A 0.617 0.617 0 0 1 249.619 17.996 Q 249.86 18.139 250.1 18.5 A 5.975 5.975 0 0 1 250.459 19.51 A 4.452 4.452 0 0 1 250.6 20.6 A 5.344 5.344 0 0 1 249.678 23.439 Q 247.641 26.683 241.1 30.4 A 12.688 12.688 0 0 1 242.742 32.598 A 17.016 17.016 0 0 1 243.8 34.7 Q 244.9 37.3 244.9 38.7 A 17.247 17.247 0 0 1 240.879 49.792 A 21.572 21.572 0 0 1 240.75 49.95 A 33.113 33.113 0 0 1 236.11 54.617 A 26.436 26.436 0 0 1 231.6 57.6 Q 219.8 63.6 207.8 63.6 Q 203.4 63.6 199.3 62.3 A 16.769 16.769 0 0 1 195.934 60.835 A 12.662 12.662 0 0 1 192.8 58.3 Q 189.2 54.4 189.2 49.3 A 13.958 13.958 0 0 1 191.788 41.257 A 19.562 19.562 0 0 1 193.8 38.8 A 18.135 18.135 0 0 1 200.012 34.655 Q 205.361 32.408 213.396 32.117 A 63.975 63.975 0 0 1 213.9 32.1 Q 216.514 32.019 217.66 31.937 A 15.819 15.819 0 0 0 218.1 31.9 A 36.445 36.445 0 0 1 208.91 20.025 A 41.562 41.562 0 0 1 208.8 19.8 A 18.894 18.894 0 0 1 207.652 16.585 A 14.178 14.178 0 0 1 207.2 13.1 Q 207.2 9.9 209.1 7.2 A 7.035 7.035 0 0 1 210.867 5.498 Q 212.658 4.253 215.638 3.405 A 29.807 29.807 0 0 1 216.8 3.1 Q 220.2 2.3 222.4 2.3 Q 224.527 2.3 226.187 2.721 A 11.104 11.104 0 0 1 226.3 2.75 A 10.269 10.269 0 0 1 227.552 3.178 Q 228.189 3.438 228.901 3.806 A 26.01 26.01 0 0 1 230.4 4.65 A 18.794 18.794 0 0 1 232.107 5.806 Q 233.308 6.725 234.1 7.7 A 16.989 16.989 0 0 1 235.14 6.578 Q 236.204 5.536 237.095 5.14 A 2.642 2.642 0 0 1 238 4.9 A 3.382 3.382 0 0 1 238.449 4.827 Q 239.46 4.733 240.2 5.35 A 1.386 1.386 0 0 1 240.427 5.585 Q 240.934 6.267 240 7.2 Q 239.7 7.5 238.4 8.5 Q 232.7 13.1 232.7 16.3 A 3.69 3.69 0 0 0 232.829 17.296 A 3.016 3.016 0 0 0 233.25 18.2 A 2.346 2.346 0 0 1 233.361 18.376 Q 233.721 19.014 233.166 19.195 A 0.974 0.974 0 0 1 233.15 19.2 Q 232.5 19.4 231.9 18.85 A 1.064 1.064 0 0 1 231.656 18.459 Q 231.386 17.787 231.321 16.229 A 26.021 26.021 0 0 1 231.3 15.15 Q 231.3 12 232.9 9.4 Q 230.8 7.1 227.85 5.85 Q 224.9 4.6 223.2 4.6 Q 215.7 4.6 214.7 11.2 A 25.068 25.068 0 0 0 214.582 12.538 Q 214.5 13.835 214.5 15.5 Q 214.5 17.847 215.722 21.74 A 50.975 50.975 0 0 0 216 22.6 Q 217.07 25.808 218.368 28.025 A 15.889 15.889 0 0 0 219.45 29.65 A 29.466 29.466 0 0 1 220.051 30.463 Q 221.336 32.269 221.207 32.825 A 0.372 0.372 0 0 1 221.2 32.85 A 0.766 0.766 0 0 1 220.908 33.236 Q 220.463 33.568 219.4 33.7 A 43.625 43.625 0 0 0 203.982 38.447 A 49.461 49.461 0 0 0 203.5 38.7 A 22.817 22.817 0 0 0 200.199 40.653 Q 198.348 41.983 197.058 43.573 A 13.775 13.775 0 0 0 196.65 44.1 A 13.857 13.857 0 0 0 195.195 46.543 Q 194.419 48.245 194.316 49.934 A 8.475 8.475 0 0 0 194.3 50.45 A 10.296 10.296 0 0 0 195.915 55.961 A 12.611 12.611 0 0 0 196.2 56.4 A 9.959 9.959 0 0 0 200.359 59.871 A 12.913 12.913 0 0 0 201.7 60.4 A 29.874 29.874 0 0 0 204.045 61.084 Q 205.169 61.358 206.158 61.487 A 12.768 12.768 0 0 0 207.8 61.6 A 40.569 40.569 0 0 0 220.082 59.799 A 35.203 35.203 0 0 0 229.2 55.4 A 24.996 24.996 0 0 0 238.525 43.827 A 32.629 32.629 0 0 0 239.6 40.8 A 23.644 23.644 0 0 0 240.318 36.815 A 20.352 20.352 0 0 0 240.4 35 Q 240.4 32.2 239.8 31 Q 238.143 31.921 234.535 33.902 A 3820.288 3820.288 0 0 1 233.9 34.25 Q 229.875 36.46 227.97 37.656 A 36.227 36.227 0 0 0 227.9 37.7 A 23.884 23.884 0 0 0 222.55 42.16 A 28.509 28.509 0 0 0 221.1 43.9 Q 218.382 47.435 218.127 49.203 A 2.437 2.437 0 0 0 218.1 49.55 A 5.069 5.069 0 0 0 218.175 50.456 Q 218.265 50.948 218.462 51.329 A 2.183 2.183 0 0 0 219.05 52.05 Q 219.983 52.786 220.193 53.234 A 0.89 0.89 0 0 1 220.2 53.25 A 1.203 1.203 0 0 1 220.242 53.358 Q 220.363 53.719 220.1 53.85 Q 219.8 54 218.9 53.7 A 3.11 3.11 0 0 1 217.169 52.14 Q 216.494 50.882 216.343 48.716 A 19.033 19.033 0 0 1 216.3 47.4 Q 216.3 44.4 217.7 41.7 A 8.011 8.011 0 0 1 219.215 39.787 Q 222.63 36.447 232.2 31.7 Z M 339.7 11.5 A 16.602 16.602 0 0 0 340.558 9.95 Q 341.5 7.992 341.5 6.4 A 4.19 4.19 0 0 0 339.682 2.837 Q 337.849 1.5 334.169 1.086 A 33.033 33.033 0 0 0 330.5 0.9 A 36.302 36.302 0 0 0 324.868 1.374 Q 321.859 1.848 318.465 2.797 A 86.906 86.906 0 0 0 311.2 5.2 A 33.063 33.063 0 0 0 308.342 6.432 A 27.113 27.113 0 0 0 302.15 10.55 A 16.829 16.829 0 0 0 300.858 11.83 Q 298.4 14.557 298.4 17.35 A 6.723 6.723 0 0 0 299.757 21.448 A 9.343 9.343 0 0 0 301.55 23.25 Q 304.7 25.7 309.2 27.2 A 361.633 361.633 0 0 1 311.414 27.946 Q 321.529 31.39 327.4 34.1 Q 333 36.7 333 41.3 A 3.428 3.428 0 0 1 332.984 41.627 Q 332.885 42.661 332.174 43.962 A 13.652 13.652 0 0 1 331.4 45.2 A 14.65 14.65 0 0 1 328.345 48.546 Q 323.058 52.939 311.4 56.8 Q 304 59.2 296.4 59.2 A 43.299 43.299 0 0 1 293.641 59.118 Q 290.25 58.901 288.133 58.112 A 7.146 7.146 0 0 1 286.1 57 A 8.909 8.909 0 0 1 284.648 55.529 A 5.679 5.679 0 0 1 283.4 52 A 8.776 8.776 0 0 1 284.173 48.463 Q 285.366 45.732 288.4 43 A 31.981 31.981 0 0 1 289.602 41.947 A 27.68 27.68 0 0 1 296.6 37.65 Q 299.557 36.407 301.791 35.977 A 11.798 11.798 0 0 1 303.8 35.75 A 17.399 17.399 0 0 0 304.714 35.712 Q 306.024 35.619 306.517 35.322 A 0.578 0.578 0 0 0 306.8 35 A 0.503 0.503 0 0 0 306.806 34.978 Q 306.943 34.399 305.453 34.315 A 9.866 9.866 0 0 0 304.9 34.3 A 27.446 27.446 0 0 0 296.76 35.529 A 31.876 31.876 0 0 0 288.1 39.8 A 34.072 34.072 0 0 0 287.303 40.326 Q 284.571 42.182 282.678 44.271 A 15.421 15.421 0 0 0 278.4 54.9 A 7.106 7.106 0 0 0 280.553 60.258 Q 284.232 63.8 294.2 63.8 Q 299.452 63.8 306.083 61.882 A 80.373 80.373 0 0 0 313.4 59.35 A 78.876 78.876 0 0 0 314.053 59.088 Q 318.921 57.103 322.977 54.684 A 47.825 47.825 0 0 0 331.6 48.2 A 29.683 29.683 0 0 0 331.949 47.846 Q 334.473 45.236 335.498 42.854 A 7.955 7.955 0 0 0 336.2 39.7 A 8.59 8.59 0 0 0 334.767 34.964 A 12.441 12.441 0 0 0 332.75 32.6 A 31.416 31.416 0 0 0 330.973 31.069 A 26.341 26.341 0 0 0 325.45 27.65 Q 321.6 25.9 315.35 23.55 A 377.426 377.426 0 0 1 313.241 22.75 Q 310.014 21.515 308.213 20.743 A 34.336 34.336 0 0 1 307 20.2 A 16.285 16.285 0 0 1 305.808 19.561 Q 303.1 17.95 303.1 16.2 Q 303.1 14.088 307.325 11.381 A 36.601 36.601 0 0 1 309.5 10.1 Q 315 7.1 320.9 5.75 A 86.089 86.089 0 0 1 321.959 5.515 Q 325.351 4.784 327.926 4.532 A 25.611 25.611 0 0 1 330.4 4.4 A 28.32 28.32 0 0 1 332.188 4.454 Q 338.9 4.879 338.9 8.7 A 3.298 3.298 0 0 1 338.623 9.951 Q 337.944 11.598 335.6 13.8 Q 334.638 14.763 334.517 14.96 A 0.096 0.096 0 0 0 334.5 15 A 1.52 1.52 0 0 0 334.5 15.022 Q 334.515 16.074 336.001 15.377 A 6.889 6.889 0 0 0 336.35 15.2 A 6.088 6.088 0 0 0 337.481 14.402 Q 338.102 13.854 338.678 13.089 A 13.651 13.651 0 0 0 339.7 11.5 Z M 53.8 8.8 A 7.634 7.634 0 0 0 53.497 6.55 Q 52.464 3.2 47.9 3.2 A 14.682 14.682 0 0 0 44.32 3.693 Q 40.852 4.57 36.391 7.011 A 63.267 63.267 0 0 0 34.65 8 Q 27.982 11.928 21.012 19.236 A 105.198 105.198 0 0 0 17.9 22.65 A 64.594 64.594 0 0 0 10.23 33.384 A 51.911 51.911 0 0 0 5.9 43.3 A 30.781 30.781 0 0 0 4.895 47.189 Q 4.506 49.278 4.5 51.19 A 19.087 19.087 0 0 0 4.5 51.25 A 10.649 10.649 0 0 0 5.164 55.055 A 9.765 9.765 0 0 0 6.6 57.6 A 11.631 11.631 0 0 0 12.151 61.479 Q 14.96 62.456 18.7 62.5 L 19.8 62.5 Q 29.1 62.5 39.9 57.75 Q 50.7 53 57.2 43.8 Q 57.694 43.109 58.237 43.491 A 1.056 1.056 0 0 1 58.25 43.5 A 2.963 2.963 0 0 1 58.465 43.671 Q 58.671 43.852 58.75 44.011 A 0.424 0.424 0 0 1 58.8 44.2 A 0.739 0.739 0 0 1 58.755 44.464 A 0.664 0.664 0 0 1 58.6 44.7 Q 51.2 54.8 40.4 59.9 A 56.288 56.288 0 0 1 30.102 63.644 A 43.379 43.379 0 0 1 19.5 65 A 29.93 29.93 0 0 1 13.383 64.414 Q 9.575 63.619 6.703 61.743 A 16.233 16.233 0 0 1 3.5 59 A 13.389 13.389 0 0 1 0.346 52.525 A 19.12 19.12 0 0 1 0 48.8 A 32.732 32.732 0 0 1 1.758 38.511 Q 3.128 34.366 5.565 30.007 A 66.428 66.428 0 0 1 8 26 A 69.481 69.481 0 0 1 18.418 13.428 A 52.475 52.475 0 0 1 34.4 3 A 35.043 35.043 0 0 1 40.455 1.163 A 27.405 27.405 0 0 1 45.9 0.6 Q 52.7 0.6 55.6 3.8 Q 57.5 6 57.5 8.9 A 11.87 11.87 0 0 1 56.309 13.946 Q 54.872 17.028 51.7 20.2 Q 45.9 26 38.85 29.45 A 54.994 54.994 0 0 1 34.222 31.474 Q 30.013 33.072 26.6 33.4 Q 24.596 33.591 24.596 32.415 A 1.5 1.5 0 0 1 24.6 32.301 Q 24.7 30.5 27.1 30.3 Q 35.1 29.6 41.8 25.45 Q 48.5 21.3 52.1 14.4 A 11.197 11.197 0 0 0 53.463 11.343 A 9.738 9.738 0 0 0 53.8 8.8 Z M 140.2 52.4 L 146.7 43.9 A 16.553 16.553 0 0 1 146.607 42.525 A 19.219 19.219 0 0 1 146.6 42 Q 146.6 39 147.9 38.3 Q 148.6 38 148.8 39.5 L 149.2 40.9 A 142.422 142.422 0 0 1 152.363 37.317 Q 156.754 32.522 159.331 30.85 A 8.281 8.281 0 0 1 160.3 30.3 A 9.057 9.057 0 0 1 161.446 29.817 Q 162.06 29.609 162.622 29.538 A 4.583 4.583 0 0 1 163.2 29.5 A 4.095 4.095 0 0 1 164.673 29.76 A 3.804 3.804 0 0 1 165.5 30.2 A 3.539 3.539 0 0 1 165.961 30.579 Q 166.5 31.113 166.5 31.7 A 1.843 1.843 0 0 1 166.076 32.848 Q 165.601 33.458 164.597 33.999 A 9.272 9.272 0 0 1 164.2 34.2 A 129.682 129.682 0 0 0 159.205 36.731 Q 152.408 40.377 149.759 43.139 A 12.11 12.11 0 0 0 149.7 43.2 Q 152.1 51.6 154.4 56.4 A 38.168 38.168 0 0 0 156.498 60.169 Q 157.72 62.117 159.307 64.231 A 82.951 82.951 0 0 0 161.65 67.2 Q 166.6 73.2 170.7 73.2 A 5.646 5.646 0 0 0 171.755 73.111 Q 173.997 72.682 173.5 70.2 Q 173.1 67.5 171.85 65.55 A 10.44 10.44 0 0 1 171.614 65.165 Q 170.806 63.775 171.423 63.62 A 0.73 0.73 0 0 1 171.6 63.6 Q 172.313 63.68 173.089 64.198 A 5.975 5.975 0 0 1 173.5 64.5 A 4.765 4.765 0 0 1 173.851 64.973 Q 174.204 65.507 174.614 66.345 A 24.972 24.972 0 0 1 174.9 66.95 Q 175.7 68.7 175.7 69.9 A 4.993 4.993 0 0 1 173.82 73.715 A 7.078 7.078 0 0 1 173 74.3 A 12.28 12.28 0 0 1 171 75.306 Q 169.727 75.798 168.505 75.883 A 7.31 7.31 0 0 1 168 75.9 A 10.325 10.325 0 0 1 163.063 74.588 Q 160.91 73.43 158.8 71.25 A 37.607 37.607 0 0 1 153.106 63.559 A 45.352 45.352 0 0 1 151.3 60 Q 148.3 53.4 147.1 46.5 Q 145.863 48.219 144.436 50.41 A 156.192 156.192 0 0 0 143.1 52.5 Q 139.388 58.193 138.125 59.598 A 2.592 2.592 0 0 1 137.7 60 A 57.652 57.652 0 0 1 136.442 60.612 Q 134.565 61.494 133.633 61.721 A 2.341 2.341 0 0 1 133.1 61.8 A 5.088 5.088 0 0 1 132.786 61.791 Q 132.328 61.763 132.176 61.643 A 0.177 0.177 0 0 1 132.1 61.5 Q 132.1 61.219 132.232 60.894 A 2.391 2.391 0 0 1 132.25 60.85 A 5.308 5.308 0 0 0 132.305 60.715 Q 132.557 60.075 133.65 57.1 Q 134.9 53.7 136.8 48.5 Q 138.7 43.3 140.1 39.8 A 43.798 43.798 0 0 0 138.424 41.744 Q 137.58 42.778 136.649 44.017 A 108.733 108.733 0 0 0 134.7 46.7 A 1.347 1.347 0 0 1 134.439 46.979 Q 134.075 47.266 133.575 47.163 A 1.698 1.698 0 0 1 133.35 47.1 A 0.527 0.527 0 0 1 133.149 46.98 Q 132.751 46.581 133.674 45.302 A 10.462 10.462 0 0 1 133.9 45 A 81.025 81.025 0 0 0 136.129 42.159 Q 138.392 39.149 141.249 34.918 A 289.615 289.615 0 0 0 142.2 33.5 A 6.733 6.733 0 0 1 141.634 33.165 Q 140.7 32.542 140.7 31.95 Q 140.7 31.242 140.879 30.846 A 1.244 1.244 0 0 1 140.9 30.8 A 1.745 1.745 0 0 1 141.091 30.451 Q 141.618 29.718 142.7 30.3 Q 143.3 30.5 143.5 30.5 A 92.766 92.766 0 0 1 150.59 15.732 A 80.474 80.474 0 0 1 154.5 9.8 A 35.28 35.28 0 0 1 157.242 6.362 Q 159.563 3.819 162 2.35 Q 165.9 0 169.3 0 Q 171.7 0 173.9 1.15 A 4.175 4.175 0 0 1 175.283 2.27 Q 176.1 3.316 176.1 4.9 A 8.696 8.696 0 0 1 175.493 7.874 Q 173.816 12.424 167.5 19.4 Q 162.9 24.3 157.2 28.4 Q 153.078 31.365 149.636 33.18 A 36.411 36.411 0 0 1 147.1 34.4 Q 143.2 43 140.2 52.4 Z M 375.679 0.302 A 13.013 13.013 0 0 0 374.5 0.7 A 14.194 14.194 0 0 0 373.426 1.164 Q 363.205 6.081 351.9 30.4 A 22.146 22.146 0 0 1 351.541 31.13 A 19.313 19.313 0 0 1 350.1 33.5 A 8.632 8.632 0 0 0 349.92 33.43 Q 348.861 33.034 348.256 33.146 A 1.042 1.042 0 0 0 347.95 33.25 Q 347.345 33.576 347.347 34.378 A 2.273 2.273 0 0 0 347.35 34.5 A 1.541 1.541 0 0 0 347.804 35.532 A 2.18 2.18 0 0 0 348.3 35.9 Q 347.1 37.6 344.25 41.05 A 470.733 470.733 0 0 0 343.272 42.238 Q 341.235 44.72 340.5 45.7 A 6.204 6.204 0 0 0 340.351 45.907 Q 340.043 46.355 339.862 46.796 A 3.273 3.273 0 0 0 339.6 48.05 A 3.265 3.265 0 0 0 339.6 48.067 Q 339.606 49.195 340.4 48.4 A 221.601 221.601 0 0 0 342.609 45.976 Q 344.377 44.007 345.9 42.205 A 119.128 119.128 0 0 0 348.6 38.9 Q 347.272 42.26 344.113 51.112 A 1857.06 1857.06 0 0 0 342.2 56.5 A 586.652 586.652 0 0 1 342.047 56.939 Q 340.789 60.523 340.6 60.9 Q 340.4 61.3 340.5 61.55 A 0.221 0.221 0 0 0 340.569 61.639 Q 340.768 61.8 341.45 61.8 Q 342.141 61.8 344.647 60.612 A 67.128 67.128 0 0 0 345.9 60 Q 346.6 59.563 351.32 53.345 A 500.973 500.973 0 0 0 352.75 51.45 A 274.062 274.062 0 0 1 352.849 51.319 Q 358.826 43.377 361.9 40.5 Q 365.458 37.407 367.221 36.706 A 2.462 2.462 0 0 1 368.1 36.5 A 1.255 1.255 0 0 1 368.395 36.532 Q 368.756 36.62 368.859 36.949 A 1.011 1.011 0 0 1 368.9 37.25 Q 368.9 37.836 368.29 39.063 A 18.438 18.438 0 0 1 367.9 39.8 A 127.653 127.653 0 0 0 367.586 40.387 Q 363.084 48.84 362.6 52.9 Q 362.4 54.3 362.4 55.55 A 9.842 9.842 0 0 0 362.406 55.881 Q 362.422 56.367 362.487 56.796 A 5.458 5.458 0 0 0 362.7 57.7 A 7.48 7.48 0 0 0 363.252 58.95 Q 364.128 60.506 365.628 61.113 A 5.754 5.754 0 0 0 367.8 61.5 A 10.66 10.66 0 0 0 369.993 61.268 Q 373.186 60.598 376.6 58 A 22.909 22.909 0 0 0 377.49 57.295 Q 379.686 55.471 382.9 52.05 Q 386.8 47.9 388.3 45.2 A 1.639 1.639 0 0 0 388.376 45.076 Q 388.431 44.974 388.462 44.879 A 0.745 0.745 0 0 0 388.5 44.65 Q 388.5 44.455 388.226 44.26 A 1.871 1.871 0 0 0 388.05 44.15 Q 387.685 43.947 387.286 44.239 A 1.611 1.611 0 0 0 387.1 44.4 Q 385.469 46.65 383.284 48.964 A 65.829 65.829 0 0 1 379.55 52.6 Q 374.9 56.8 372.3 58.2 Q 370.391 59.228 369.129 58.639 A 2.518 2.518 0 0 1 368.3 58 A 2.241 2.241 0 0 1 368.197 57.875 Q 367.5 56.967 367.5 55.1 A 18.599 18.599 0 0 1 368.021 50.849 Q 368.576 48.486 369.722 45.909 A 43.049 43.049 0 0 1 372.2 41.2 Q 373.2 39.4 374.35 37.3 A 8.917 8.917 0 0 0 374.381 37.244 Q 375.33 35.481 375.33 33.577 A 7.813 7.813 0 0 0 375.3 32.9 Q 375.223 31.207 373.903 30.817 A 3.188 3.188 0 0 0 373 30.7 Q 369.425 30.7 361.427 38.292 A 127.267 127.267 0 0 0 357.5 42.2 Q 354.063 45.825 351.367 48.903 A 137.572 137.572 0 0 0 348.4 52.4 A 237.994 237.994 0 0 1 349.796 48.247 Q 350.949 44.919 352.072 42.033 A 118.429 118.429 0 0 1 354.2 36.9 A 224.561 224.561 0 0 0 355.336 36.039 Q 359.337 32.987 363.683 29.395 A 380.229 380.229 0 0 0 372.8 21.6 A 74.503 74.503 0 0 0 377.064 17.452 Q 381.452 12.796 383.142 8.969 A 11.121 11.121 0 0 0 384.2 4.5 A 2.036 2.036 0 0 0 384.2 4.479 Q 384.194 3.854 383.805 3.086 A 6.701 6.701 0 0 0 383.4 2.4 A 4.227 4.227 0 0 0 381.427 0.677 Q 379.936 0 377.6 0 A 5.739 5.739 0 0 0 376.798 0.06 Q 376.271 0.135 375.679 0.302 Z M 438.684 43.118 A 11.943 11.943 0 0 0 439.7 38.4 A 10.691 10.691 0 0 0 439.684 37.815 A 13.221 13.221 0 0 0 439.6 36.9 A 4.63 4.63 0 0 0 438.755 34.74 Q 437.679 33.254 435.3 32.4 A 12.58 12.58 0 0 0 435.286 32.396 A 11.321 11.321 0 0 0 431.7 31.8 A 10.926 10.926 0 0 0 429.221 32.091 Q 425.89 32.865 422.4 35.7 Q 419.7 37.725 415.763 43.182 A 115.656 115.656 0 0 0 413 47.2 A 290.005 290.005 0 0 1 413.553 45.886 Q 416.086 39.902 417.735 36.812 A 26.366 26.366 0 0 1 418.75 35.05 Q 420.137 32.882 420.537 31.396 A 4.246 4.246 0 0 0 420.7 30.3 Q 420.7 28.459 418.648 28.092 A 6.557 6.557 0 0 0 417.5 28 A 15.373 15.373 0 0 0 417.077 28.006 Q 415.43 28.051 414.76 28.463 A 0.842 0.842 0 0 0 414.3 29.2 Q 414.1 32.4 411.9 38.8 Q 410.6 42.6 409.9 44.6 Q 409.288 46.35 403.852 60.542 A 10254.863 10254.863 0 0 1 402.2 64.85 Q 395.2 83.1 390.6 92.5 A 6.513 6.513 0 0 0 390.515 92.71 Q 390.3 93.262 390.3 93.6 A 1.473 1.473 0 0 0 390.343 93.971 Q 390.507 94.6 391.3 94.6 Q 392.3 94.6 394.7 93.85 A 10.955 10.955 0 0 0 395.354 93.624 Q 397.172 92.927 397.6 91.9 A 22.065 22.065 0 0 0 398.328 90.442 Q 399.078 88.801 399.85 86.55 A 39.935 39.935 0 0 0 400.063 85.914 Q 401.005 83.011 401.05 81.25 A 18.52 18.52 0 0 1 401.091 80.393 Q 401.192 79.003 401.5 78 Q 404.425 69 406.394 63.882 A 81.379 81.379 0 0 1 407.6 60.9 Q 408.585 61.228 409.935 61.341 A 18.251 18.251 0 0 0 411.45 61.4 Q 413.8 61.4 418.45 59.8 A 38.729 38.729 0 0 0 420.766 58.919 A 43.679 43.679 0 0 0 427.6 55.3 Q 432.5 51.9 436.1 47.35 A 23.177 23.177 0 0 0 436.801 46.419 Q 437.984 44.758 438.684 43.118 Z M 73.6 10.9 L 76.7 7 A 20.604 20.604 0 0 1 77.485 6.129 Q 78.457 5.107 79.9 3.8 Q 83.111 0.75 86.483 0.148 A 9.471 9.471 0 0 1 88.15 0 Q 90.644 0 92.191 0.896 A 4.592 4.592 0 0 1 93.9 2.6 A 3.314 3.314 0 0 1 94.193 3.341 Q 94.387 4.057 94.399 5.064 A 11.234 11.234 0 0 1 94.4 5.2 A 5.448 5.448 0 0 1 94.282 6.267 Q 94.055 7.39 93.398 8.915 A 27.406 27.406 0 0 1 92.9 10 Q 82.6 27.9 60.4 46.4 Q 59.367 49.329 59.149 50.588 A 4.387 4.387 0 0 0 59.1 50.95 Q 59.005 52.048 59 53.874 A 73.942 73.942 0 0 0 59 54.05 Q 59 56 60 57.6 Q 61.668 60.249 65.548 58.086 A 12.991 12.991 0 0 0 65.7 58 A 20.52 20.52 0 0 0 67.677 56.779 Q 70.102 55.105 73.3 52.15 Q 76.725 48.986 78.986 46.238 A 34.123 34.123 0 0 0 80.4 44.4 A 0.646 0.646 0 0 1 80.869 44.109 A 0.942 0.942 0 0 1 81 44.1 Q 81.9 44.1 81.5 45.4 Q 80 48.1 75.95 52.3 A 84.547 84.547 0 0 1 73.018 55.204 Q 70.663 57.419 68.6 58.95 A 14.084 14.084 0 0 1 66.029 60.488 Q 64.14 61.343 62.252 61.397 A 8.893 8.893 0 0 1 62 61.4 A 11.283 11.283 0 0 1 59.039 61.046 Q 55.651 60.122 54.737 56.789 A 10.568 10.568 0 0 1 54.4 54 L 54.4 53.4 A 25.188 25.188 0 0 1 55.057 49.177 Q 56.58 42.642 61.5 32.25 A 220.858 220.858 0 0 1 65.512 24.179 Q 69.407 16.754 72.806 11.987 A 55.856 55.856 0 0 1 73.6 10.9 Z M 126.7 37.2 L 127.2 35.2 A 3.919 3.919 0 0 0 127.14 34.477 Q 126.912 33.273 125.834 33.204 A 2.103 2.103 0 0 0 125.7 33.2 A 7.496 7.496 0 0 0 123.157 33.707 Q 119.603 35 114.5 39.6 A 41.872 41.872 0 0 0 110.233 44.012 Q 106.747 48.235 105.5 52.5 A 13.88 13.88 0 0 0 105.167 53.872 Q 105 54.77 105 55.55 A 5.018 5.018 0 0 0 105.096 56.555 Q 105.228 57.204 105.545 57.715 A 3.135 3.135 0 0 0 105.6 57.8 A 3.91 3.91 0 0 0 108.408 59.537 A 6.028 6.028 0 0 0 109.3 59.6 A 20.566 20.566 0 0 0 112.239 59.379 A 26.885 26.885 0 0 0 114.7 58.9 A 36.059 36.059 0 0 0 120.143 56.912 A 26.231 26.231 0 0 0 125.35 53.75 A 39.889 39.889 0 0 0 128.601 50.865 Q 130.327 49.168 132.122 47.067 A 81.263 81.263 0 0 0 134.3 44.4 A 1.171 1.171 0 0 1 134.491 44.208 Q 134.826 43.946 135.25 44.1 Q 135.8 44.3 135.8 44.65 A 1.223 1.223 0 0 1 135.777 44.871 Q 135.717 45.194 135.5 45.7 A 61.568 61.568 0 0 1 130.666 51.505 A 45.623 45.623 0 0 1 125.45 56.25 A 27.09 27.09 0 0 1 113.73 61.423 A 31.504 31.504 0 0 1 113.3 61.5 A 28.315 28.315 0 0 1 111.26 61.734 A 21.808 21.808 0 0 1 109.6 61.8 Q 106.227 61.8 103.967 60.663 A 7.653 7.653 0 0 1 102.15 59.4 A 9.336 9.336 0 0 1 100.653 57.621 A 6.454 6.454 0 0 1 99.6 54.1 Q 99.6 51.382 100.831 48.223 A 23.876 23.876 0 0 1 101 47.8 A 19.397 19.397 0 0 1 103.533 43.665 Q 106.356 40.06 111.374 36.34 A 65.179 65.179 0 0 1 111.7 36.1 Q 118.07 31.439 122.388 30.399 A 9.907 9.907 0 0 1 124.7 30.1 Q 125.9 30.1 127 30.4 A 6.497 6.497 0 0 1 128.192 30.955 Q 129.8 31.933 129.8 33.6 Q 129.8 34.739 129.167 36.107 A 11.052 11.052 0 0 1 128.7 37 A 10.032 10.032 0 0 1 128.395 37.496 Q 127.551 38.776 127.083 38.38 A 0.53 0.53 0 0 1 127.05 38.35 A 1.714 1.714 0 0 1 126.831 38.086 Q 126.56 37.676 126.688 37.24 A 1.125 1.125 0 0 1 126.7 37.2 Z M 89.63 31.582 A 5.93 5.93 0 0 0 88.6 31.5 L 87.9 31.5 A 1.489 1.489 0 0 0 87.209 31.895 Q 86.258 32.768 85.133 35.487 A 41.756 41.756 0 0 0 84.4 37.4 A 3.347 3.347 0 0 0 84.271 37.692 Q 84.116 38.094 84.136 38.408 A 0.948 0.948 0 0 0 84.2 38.7 Q 81.4 42.9 76.5 49 A 3.425 3.425 0 0 0 76.421 49.103 Q 76.222 49.372 76.146 49.595 A 0.797 0.797 0 0 0 76.1 49.85 Q 76.1 50.07 76.14 50.23 A 0.812 0.812 0 0 0 76.2 50.4 Q 76.642 51.283 77.395 50.607 A 2.748 2.748 0 0 0 77.6 50.4 A 121.844 121.844 0 0 0 78.822 48.978 Q 80.523 46.965 81.177 45.963 A 4.481 4.481 0 0 0 81.5 45.4 A 68.105 68.105 0 0 0 80.184 48.51 Q 78.972 51.603 78.54 53.817 A 11.542 11.542 0 0 0 78.3 56 A 9.213 9.213 0 0 0 78.307 56.352 Q 78.336 57.127 78.5 57.7 Q 79.8 61.5 83.8 61.5 Q 85.5 61.5 88 60.6 Q 92.3 59 98.7 52.1 A 78.922 78.922 0 0 0 99.92 50.757 Q 101.807 48.629 102.998 46.936 A 19.579 19.579 0 0 0 104.1 45.2 A 1.639 1.639 0 0 0 104.176 45.076 Q 104.231 44.974 104.262 44.879 A 0.745 0.745 0 0 0 104.3 44.65 Q 104.3 44.453 103.989 44.256 A 2.149 2.149 0 0 0 103.8 44.15 A 0.866 0.866 0 0 0 103.672 44.098 Q 103.248 43.965 102.9 44.4 Q 101.269 46.65 99.084 48.964 A 65.829 65.829 0 0 1 95.35 52.6 Q 90.7 56.8 88.1 58.2 Q 86.191 59.228 84.929 58.639 A 2.518 2.518 0 0 1 84.1 58 Q 83.3 57.1 83.3 55.7 Q 83.3 54.782 83.343 54.078 A 13.814 13.814 0 0 1 83.4 53.4 Q 83.7 50.3 89.4 38.9 A 45.061 45.061 0 0 0 89.65 38.444 A 51.03 51.03 0 0 0 90.4 37 A 7.558 7.558 0 0 1 90.439 36.889 Q 90.535 36.612 90.7 36.2 Q 90.9 35.7 91.35 34.85 Q 91.662 34.262 91.662 33.649 A 2.525 2.525 0 0 0 91.6 33.1 Q 91.214 31.863 89.63 31.582 Z M 396.43 31.582 A 5.93 5.93 0 0 0 395.4 31.5 L 394.7 31.5 A 1.489 1.489 0 0 0 394.009 31.895 Q 393.058 32.768 391.933 35.487 A 41.756 41.756 0 0 0 391.2 37.4 A 3.347 3.347 0 0 0 391.071 37.692 Q 390.916 38.094 390.936 38.408 A 0.948 0.948 0 0 0 391 38.7 Q 388.2 42.9 383.3 49 A 3.425 3.425 0 0 0 383.221 49.103 Q 383.022 49.372 382.946 49.595 A 0.797 0.797 0 0 0 382.9 49.85 Q 382.9 50.07 382.94 50.23 A 0.812 0.812 0 0 0 383 50.4 Q 383.442 51.283 384.195 50.607 A 2.748 2.748 0 0 0 384.4 50.4 A 121.844 121.844 0 0 0 385.622 48.978 Q 387.323 46.965 387.977 45.963 A 4.481 4.481 0 0 0 388.3 45.4 A 68.105 68.105 0 0 0 386.984 48.51 Q 385.772 51.603 385.34 53.817 A 11.542 11.542 0 0 0 385.1 56 A 9.213 9.213 0 0 0 385.107 56.352 Q 385.136 57.127 385.3 57.7 Q 386.6 61.5 390.6 61.5 Q 392.3 61.5 394.8 60.6 Q 399.1 59 405.5 52.1 A 78.922 78.922 0 0 0 406.72 50.757 Q 408.607 48.629 409.798 46.936 A 19.579 19.579 0 0 0 410.9 45.2 A 1.639 1.639 0 0 0 410.976 45.076 Q 411.031 44.974 411.062 44.879 A 0.745 0.745 0 0 0 411.1 44.65 Q 411.1 44.453 410.789 44.256 A 2.149 2.149 0 0 0 410.6 44.15 A 0.866 0.866 0 0 0 410.472 44.098 Q 410.048 43.965 409.7 44.4 Q 408.069 46.65 405.884 48.964 A 65.829 65.829 0 0 1 402.15 52.6 Q 397.5 56.8 394.9 58.2 Q 392.991 59.228 391.729 58.639 A 2.518 2.518 0 0 1 390.9 58 Q 390.1 57.1 390.1 55.7 Q 390.1 54.782 390.143 54.078 A 13.814 13.814 0 0 1 390.2 53.4 Q 390.5 50.3 396.2 38.9 A 45.061 45.061 0 0 0 396.45 38.444 A 51.03 51.03 0 0 0 397.2 37 A 7.558 7.558 0 0 1 397.239 36.889 Q 397.335 36.612 397.5 36.2 Q 397.7 35.7 398.15 34.85 Q 398.462 34.262 398.462 33.649 A 2.525 2.525 0 0 0 398.4 33.1 Q 398.014 31.863 396.43 31.582 Z M 90.2 8.2 Q 91.4 6 91.4 4.8 Q 91.4 2.7 89.7 2.7 Q 88.47 2.7 86.7 3.935 A 14.766 14.766 0 0 0 86.2 4.3 Q 80.389 8.804 74.842 17.107 A 101.246 101.246 0 0 0 70.7 23.9 Q 64.7 34.7 61.9 42.4 A 46.813 46.813 0 0 0 66.81 38.498 Q 71.646 34.146 77.175 27.318 A 152.267 152.267 0 0 0 77.35 27.1 Q 85.9 16.5 90.2 8.2 Z M 380.1 8.2 A 15.311 15.311 0 0 0 380.758 6.841 Q 381.4 5.31 381.4 4.15 A 2.733 2.733 0 0 0 381.336 3.528 Q 381.094 2.5 379.95 2.5 Q 378.5 2.5 376.1 4.3 Q 368.323 10.239 361.595 21.827 A 117.093 117.093 0 0 0 356.2 32.4 Q 362.161 28.549 368.626 22.343 A 122.692 122.692 0 0 0 369.8 21.2 Q 374.91 16.162 378 11.642 A 36.845 36.845 0 0 0 380.1 8.2 Z M 434.8 37 A 6.653 6.653 0 0 0 434.689 35.723 Q 434.288 33.683 432.443 33.515 A 3.781 3.781 0 0 0 432.1 33.5 A 4.317 4.317 0 0 0 431.142 33.627 Q 429.572 33.99 426.9 35.4 A 23.35 23.35 0 0 0 423.413 37.687 Q 421.847 38.914 420.28 40.5 A 40.622 40.622 0 0 0 419.7 41.1 A 51.855 51.855 0 0 0 417.048 44.114 Q 415.852 45.59 414.931 46.992 A 27.338 27.338 0 0 0 414.15 48.25 Q 412.2 51.6 410.5 55.15 A 2122.408 2122.408 0 0 1 409.912 56.378 Q 408.744 58.813 408.5 59.3 Q 414.6 59.3 421.9 54 A 47.078 47.078 0 0 0 427.557 49.213 Q 430.467 46.301 432.409 43.154 A 28.499 28.499 0 0 0 432.8 42.5 A 16.866 16.866 0 0 0 433.855 40.631 Q 434.8 38.65 434.8 37 Z M 170.4 10.6 A 46.692 46.692 0 0 0 171.452 8.761 Q 172.897 6.083 173.075 4.672 A 2.978 2.978 0 0 0 173.1 4.3 A 3.156 3.156 0 0 0 173.036 3.632 Q 172.826 2.668 171.931 2.525 A 2.105 2.105 0 0 0 171.6 2.5 Q 170.1 2.5 167.8 4.3 A 51.055 51.055 0 0 0 157.138 15.255 A 48.432 48.432 0 0 0 157 15.45 Q 152.6 21.7 148.3 31 A 48.18 48.18 0 0 0 160.791 22.546 A 59.213 59.213 0 0 0 165.2 18 Q 167.7 15.1 170.4 10.6 Z M 96.5 18.2 L 95.7 21.4 A 1.977 1.977 0 0 1 95.619 21.919 Q 95.375 22.8 94.4 24.3 Q 93.357 25.906 92.7 26.223 A 0.695 0.695 0 0 1 92.4 26.3 Q 88.1 26.3 88.1 24.2 A 0.492 0.492 0 0 1 88.239 23.963 Q 88.832 23.256 91.959 20.84 A 171.533 171.533 0 0 1 92.4 20.5 L 94.1 19.2 A 26.64 26.64 0 0 1 94.658 18.725 Q 95.718 17.848 96.065 17.803 A 0.276 0.276 0 0 1 96.1 17.8 A 0.576 0.576 0 0 1 96.259 17.82 Q 96.436 17.871 96.483 18.052 A 0.589 0.589 0 0 1 96.5 18.2 Z M 403.3 18.2 L 402.5 21.4 A 1.977 1.977 0 0 1 402.419 21.919 Q 402.175 22.8 401.2 24.3 Q 400.157 25.906 399.5 26.223 A 0.695 0.695 0 0 1 399.2 26.3 Q 394.9 26.3 394.9 24.2 A 0.492 0.492 0 0 1 395.039 23.963 Q 395.632 23.256 398.759 20.84 A 171.533 171.533 0 0 1 399.2 20.5 L 400.9 19.2 A 26.64 26.64 0 0 1 401.458 18.725 Q 402.518 17.848 402.865 17.803 A 0.276 0.276 0 0 1 402.9 17.8 A 0.576 0.576 0 0 1 403.059 17.82 Q 403.236 17.871 403.283 18.052 A 0.589 0.589 0 0 1 403.3 18.2 Z" vector-effect="non-scaling-stroke"/></g></svg>